<?xml version="1.0" ?><svg data-name="Layer 1" id="Layer_1" viewBox="0 0 60 60" xmlns="http://www.w3.org/2000/svg" xmlns:xlink="http://www.w3.org/1999/xlink"><defs><style>.cls-1,.cls-2,.cls-5{fill:none;}.cls-1{clip-rule:evenodd;}.cls-3{clip-path:url(#clip-path);}.cls-4{fill:#d8d8d8;}.cls-5{stroke:#535353;stroke-linecap:round;stroke-linejoin:round;stroke-width:2px;}.cls-6{clip-path:url(#clip-path-2);}.cls-7{clip-path:url(#clip-path-3);}.cls-8{clip-path:url(#clip-path-4);}.cls-9{clip-path:url(#clip-path-5);}.cls-10{clip-path:url(#clip-path-6);}.cls-11{clip-path:url(#clip-path-7);}</style><clipPath id="clip-path"><polygon class="cls-1" points="4.23 20 3 20 30 54 57 20 55.77 20 43.5 30 16.5 30 4.23 20"/></clipPath><clipPath id="clip-path-2"><polygon class="cls-1" points="49 9 39.75 14 20.25 14 11 9 20.25 5 39.75 5 49 9"/></clipPath><clipPath id="clip-path-3"><polygon class="cls-1" points="16 30 44 30 30 54 16 30"/></clipPath><clipPath id="clip-path-4"><line class="cls-2" x1="10.5" x2="3" y1="9.5" y2="20"/></clipPath><clipPath id="clip-path-5"><line class="cls-2" x1="49.5" x2="57" y1="9.5" y2="20"/></clipPath><clipPath id="clip-path-6"><line class="cls-2" x1="39.5" x2="44" y1="14" y2="29.5"/></clipPath><clipPath id="clip-path-7"><line class="cls-2" x1="20.5" x2="16.5" y1="14" y2="30"/></clipPath></defs><title/><g class="cls-3"><rect class="cls-4" height="44" width="64" x="-2" y="15"/></g><polygon class="cls-5" points="4.23 20 3 20 30 54 57 20 55.77 20 43.5 30 16.5 30 4.23 20"/><g class="cls-6"><rect class="cls-4" height="19" width="48" x="6"/></g><polygon class="cls-5" points="49 9 39.75 14 20.25 14 11 9 20.25 5 39.75 5 49 9"/><g class="cls-7"><rect class="cls-4" height="34" width="38" x="11" y="25"/></g><polygon class="cls-5" points="16 30 44 30 30 54 16 30"/><g class="cls-8"><rect class="cls-4" height="20.5" width="17.5" x="-2" y="4.5"/></g><line class="cls-5" x1="10.5" x2="3" y1="9.5" y2="20"/><g class="cls-9"><rect class="cls-4" height="20.5" width="17.5" x="44.5" y="4.5"/></g><line class="cls-5" x1="49.5" x2="57" y1="9.5" y2="20"/><g class="cls-10"><rect class="cls-4" height="25.5" width="14.5" x="34.5" y="9"/></g><line class="cls-5" x1="39.5" x2="44" y1="14" y2="29.5"/><g class="cls-11"><rect class="cls-4" height="26" width="14" x="11.5" y="9"/></g><line class="cls-5" x1="20.5" x2="16.5" y1="14" y2="30"/></svg>